<svg xmlns="http://www.w3.org/2000/svg" xmlns:xlink="http://www.w3.org/1999/xlink" contentStyleType="text/css" data-diagram-type="CLASS" height="820px" preserveAspectRatio="none" style="width:1111px;height:820px;background:#FFFFFF;" version="1.1" viewBox="0 0 1111 820" width="1111px" zoomAndPan="magnify"><title>Domain Model</title><defs/><g><g class="title" data-source-line="2"><text fill="#000000" font-family="sans-serif" font-size="14" font-weight="bold" lengthAdjust="spacing" textLength="103.8926" x="496.981" y="23.5352">Domain Model</text></g><!--class Session--><g class="entity" data-entity="Session" data-source-line="4" data-uid="ent0002" id="entity_Session"><rect fill="#F1F1F1" height="56.6211" rx="2.5" ry="2.5" style="stroke:#181818;stroke-width:0.5;" width="82.9482" x="467.75" y="566.3483"/><ellipse cx="482.75" cy="586.6588" fill="#B4A7E5" rx="11" ry="11" style="stroke:#181818;stroke-width:1;"/><path d="M478.6777,582.424 L478.6777,580.2658 L486.0571,580.2658 L486.0571,582.424 L483.5918,582.424 L483.5918,590.5006 L486.0571,590.5006 L486.0571,592.6588 L478.6777,592.6588 L478.6777,590.5006 L481.1431,590.5006 L481.1431,582.424 Z " fill="#000000"/><text fill="#000000" font-family="sans-serif" font-size="12" font-style="italic" lengthAdjust="spacing" textLength="50.0566" x="497.1958" y="582.9498">&#171;Sealed&#187;</text><text fill="#000000" font-family="sans-serif" font-size="14" font-style="italic" lengthAdjust="spacing" textLength="50.9482" x="496.75" y="599.0163">Session</text><line style="stroke:#181818;stroke-width:0.5;" x1="468.75" x2="549.6982" y1="606.9694" y2="606.9694"/><line style="stroke:#181818;stroke-width:0.5;" x1="468.75" x2="549.6982" y1="614.9694" y2="614.9694"/></g><!--class None--><g class="entity" data-entity="None" data-source-line="6" data-uid="ent0003" id="entity_None"><rect fill="#F1F1F1" height="48" rx="2.5" ry="2.5" style="stroke:#181818;stroke-width:0.5;" width="67.4307" x="158.51" y="724.1883"/><ellipse cx="173.51" cy="740.1883" fill="#ADD1B2" rx="11" ry="11" style="stroke:#181818;stroke-width:1;"/><path d="M176.4831,745.8313 Q175.9021,746.1302 175.2629,746.2796 Q174.6238,746.429 173.9182,746.429 Q171.4114,746.429 170.0915,744.7771 Q168.7717,743.1253 168.7717,740.0042 Q168.7717,736.8748 170.0915,735.2229 Q171.4114,733.5711 173.9182,733.5711 Q174.6238,733.5711 175.2712,733.7205 Q175.9187,733.8699 176.4831,734.1687 L176.4831,736.8914 Q175.8523,736.3104 175.2588,736.0406 Q174.6653,735.7708 174.0344,735.7708 Q172.6897,735.7708 172.0049,736.8375 Q171.3201,737.9041 171.3201,740.0042 Q171.3201,742.096 172.0049,743.1626 Q172.6897,744.2293 174.0344,744.2293 Q174.6653,744.2293 175.2588,743.9595 Q175.8523,743.6897 176.4831,743.1087 Z " fill="#000000"/><text fill="#000000" font-family="sans-serif" font-size="14" lengthAdjust="spacing" textLength="35.4307" x="187.51" y="745.4793">None</text><line style="stroke:#181818;stroke-width:0.5;" x1="159.51" x2="224.9407" y1="756.1883" y2="756.1883"/><line style="stroke:#181818;stroke-width:0.5;" x1="159.51" x2="224.9407" y1="764.1883" y2="764.1883"/></g><!--class NewSession--><g class="entity" data-entity="NewSession" data-source-line="9" data-uid="ent0005" id="entity_NewSession"><rect fill="#F1F1F1" height="113.9531" rx="2.5" ry="2.5" style="stroke:#181818;stroke-width:0.5;" width="144.9658" x="260.74" y="691.2083"/><ellipse cx="290.6296" cy="707.2083" fill="#ADD1B2" rx="11" ry="11" style="stroke:#181818;stroke-width:1;"/><path d="M293.6027,712.8513 Q293.0216,713.1502 292.3825,713.2996 Q291.7433,713.449 291.0378,713.449 Q288.5309,713.449 287.2111,711.7971 Q285.8913,710.1453 285.8913,707.0242 Q285.8913,703.8948 287.2111,702.2429 Q288.5309,700.5911 291.0378,700.5911 Q291.7433,700.5911 292.3908,700.7405 Q293.0382,700.8899 293.6027,701.1887 L293.6027,703.9114 Q292.9718,703.3304 292.3783,703.0606 Q291.7848,702.7908 291.154,702.7908 Q289.8092,702.7908 289.1244,703.8575 Q288.4396,704.9241 288.4396,707.0242 Q288.4396,709.116 289.1244,710.1826 Q289.8092,711.2493 291.154,711.2493 Q291.7848,711.2493 292.3783,710.9795 Q292.9718,710.7097 293.6027,710.1287 Z " fill="#000000"/><text fill="#000000" font-family="sans-serif" font-size="14" lengthAdjust="spacing" textLength="79.8779" x="307.9383" y="712.4993">NewSession</text><line style="stroke:#181818;stroke-width:0.5;" x1="261.74" x2="404.7058" y1="723.2083" y2="723.2083"/><line style="stroke:#181818;stroke-width:0.5;" x1="261.74" x2="404.7058" y1="731.2083" y2="731.2083"/><rect fill="#F24D5C" height="6" style="stroke:#C82930;stroke-width:1;" width="6" x="268.74" y="741.9524"/><text fill="#000000" font-family="sans-serif" font-size="14" lengthAdjust="spacing" textLength="103.8926" x="280.74" y="748.7434">SessionId (1..1)</text><rect fill="#F24D5C" height="6" style="stroke:#C82930;stroke-width:1;" width="6" x="268.74" y="758.4407"/><text fill="#000000" font-family="sans-serif" font-size="14" lengthAdjust="spacing" textLength="118.9658" x="280.74" y="765.2317">Reservation (0..1)</text><rect fill="#F24D5C" height="6" style="stroke:#C82930;stroke-width:1;" width="6" x="268.74" y="774.929"/><text fill="#000000" font-family="sans-serif" font-size="14" lengthAdjust="spacing" textLength="111.1865" x="280.74" y="781.72">BeginTime (1..1)</text><rect fill="#F24D5C" height="6" style="stroke:#C82930;stroke-width:1;" width="6" x="268.74" y="791.4173"/><text fill="#000000" font-family="sans-serif" font-size="14" lengthAdjust="spacing" textLength="77.1777" x="280.74" y="798.2083">Table (0..n)</text></g><!--class Ordering--><g class="entity" data-entity="Ordering" data-source-line="16" data-uid="ent0007" id="entity_Ordering"><rect fill="#F1F1F1" height="97.4648" rx="2.5" ry="2.5" style="stroke:#181818;stroke-width:0.5;" width="137.1865" x="440.63" y="699.4583"/><ellipse cx="475.7798" cy="715.4583" fill="#ADD1B2" rx="11" ry="11" style="stroke:#181818;stroke-width:1;"/><path d="M478.7529,721.1013 Q478.1719,721.4002 477.5327,721.5496 Q476.8936,721.699 476.188,721.699 Q473.6812,721.699 472.3613,720.0471 Q471.0415,718.3953 471.0415,715.2742 Q471.0415,712.1448 472.3613,710.4929 Q473.6812,708.8411 476.188,708.8411 Q476.8936,708.8411 477.541,708.9905 Q478.1885,709.1399 478.7529,709.4387 L478.7529,712.1614 Q478.1221,711.5804 477.5286,711.3106 Q476.9351,711.0408 476.3042,711.0408 Q474.9595,711.0408 474.2747,712.1075 Q473.5899,713.1741 473.5899,715.2742 Q473.5899,717.366 474.2747,718.4326 Q474.9595,719.4993 476.3042,719.4993 Q476.9351,719.4993 477.5286,719.2295 Q478.1221,718.9597 478.7529,718.3787 Z " fill="#000000"/><text fill="#000000" font-family="sans-serif" font-size="14" lengthAdjust="spacing" textLength="60.4092" x="494.2575" y="720.7493">Ordering</text><line style="stroke:#181818;stroke-width:0.5;" x1="441.63" x2="576.8165" y1="731.4583" y2="731.4583"/><line style="stroke:#181818;stroke-width:0.5;" x1="441.63" x2="576.8165" y1="739.4583" y2="739.4583"/><rect fill="#F24D5C" height="6" style="stroke:#C82930;stroke-width:1;" width="6" x="448.63" y="750.2024"/><text fill="#000000" font-family="sans-serif" font-size="14" lengthAdjust="spacing" textLength="103.8926" x="460.63" y="756.9934">SessionId (1..1)</text><rect fill="#F24D5C" height="6" style="stroke:#C82930;stroke-width:1;" width="6" x="448.63" y="766.6907"/><text fill="#000000" font-family="sans-serif" font-size="14" lengthAdjust="spacing" textLength="111.1865" x="460.63" y="773.4817">BeginTime (1..1)</text><rect fill="#F24D5C" height="6" style="stroke:#C82930;stroke-width:1;" width="6" x="448.63" y="783.179"/><text fill="#000000" font-family="sans-serif" font-size="14" lengthAdjust="spacing" textLength="77.1777" x="460.63" y="789.97">Table (1..n)</text></g><!--class FinishedEating--><g class="entity" data-entity="FinishedEating" data-source-line="22" data-uid="ent0009" id="entity_FinishedEating"><rect fill="#F1F1F1" height="113.9531" rx="2.5" ry="2.5" style="stroke:#181818;stroke-width:0.5;" width="137.1865" x="612.63" y="691.2083"/><ellipse cx="630.5286" cy="707.2083" fill="#ADD1B2" rx="11" ry="11" style="stroke:#181818;stroke-width:1;"/><path d="M633.5018,712.8513 Q632.9207,713.1502 632.2816,713.2996 Q631.6424,713.449 630.9368,713.449 Q628.43,713.449 627.1102,711.7971 Q625.7904,710.1453 625.7904,707.0242 Q625.7904,703.8948 627.1102,702.2429 Q628.43,700.5911 630.9368,700.5911 Q631.6424,700.5911 632.2899,700.7405 Q632.9373,700.8899 633.5018,701.1887 L633.5018,703.9114 Q632.8709,703.3304 632.2774,703.0606 Q631.6839,702.7908 631.053,702.7908 Q629.7083,702.7908 629.0235,703.8575 Q628.3387,704.9241 628.3387,707.0242 Q628.3387,709.116 629.0235,710.1826 Q629.7083,711.2493 631.053,711.2493 Q631.6839,711.2493 632.2774,710.9795 Q632.8709,710.7097 633.5018,710.1287 Z " fill="#000000"/><text fill="#000000" font-family="sans-serif" font-size="14" lengthAdjust="spacing" textLength="98.7451" x="645.1728" y="712.4993">FinishedEating</text><line style="stroke:#181818;stroke-width:0.5;" x1="613.63" x2="748.8165" y1="723.2083" y2="723.2083"/><line style="stroke:#181818;stroke-width:0.5;" x1="613.63" x2="748.8165" y1="731.2083" y2="731.2083"/><rect fill="#F24D5C" height="6" style="stroke:#C82930;stroke-width:1;" width="6" x="620.63" y="741.9524"/><text fill="#000000" font-family="sans-serif" font-size="14" lengthAdjust="spacing" textLength="103.8926" x="632.63" y="748.7434">SessionId (1..1)</text><rect fill="#F24D5C" height="6" style="stroke:#C82930;stroke-width:1;" width="6" x="620.63" y="758.4407"/><text fill="#000000" font-family="sans-serif" font-size="14" lengthAdjust="spacing" textLength="111.1865" x="632.63" y="765.2317">BeginTime (1..1)</text><rect fill="#F24D5C" height="6" style="stroke:#C82930;stroke-width:1;" width="6" x="620.63" y="774.929"/><text fill="#000000" font-family="sans-serif" font-size="14" lengthAdjust="spacing" textLength="98.957" x="632.63" y="781.72">EndTime (1..1)</text><rect fill="#F24D5C" height="6" style="stroke:#C82930;stroke-width:1;" width="6" x="620.63" y="791.4173"/><text fill="#000000" font-family="sans-serif" font-size="14" lengthAdjust="spacing" textLength="77.1777" x="632.63" y="798.2083">Table (1..n)</text></g><!--class Ended--><g class="entity" data-entity="Ended" data-source-line="29" data-uid="ent0011" id="entity_Ended"><rect fill="#F1F1F1" height="130.4414" rx="2.5" ry="2.5" style="stroke:#181818;stroke-width:0.5;" width="174.9141" x="784.77" y="682.9683"/><ellipse cx="847.1274" cy="698.9683" fill="#ADD1B2" rx="11" ry="11" style="stroke:#181818;stroke-width:1;"/><path d="M850.1006,704.6113 Q849.5195,704.9102 848.8804,705.0596 Q848.2412,705.209 847.5356,705.209 Q845.0288,705.209 843.709,703.5571 Q842.3891,701.9053 842.3891,698.7842 Q842.3891,695.6548 843.709,694.0029 Q845.0288,692.3511 847.5356,692.3511 Q848.2412,692.3511 848.8887,692.5005 Q849.5361,692.6499 850.1006,692.9487 L850.1006,695.6714 Q849.4697,695.0904 848.8762,694.8206 Q848.2827,694.5508 847.6518,694.5508 Q846.3071,694.5508 845.6223,695.6175 Q844.9375,696.6841 844.9375,698.7842 Q844.9375,700.876 845.6223,701.9426 Q846.3071,703.0093 847.6518,703.0093 Q848.2827,703.0093 848.8762,702.7395 Q849.4697,702.4697 850.1006,701.8887 Z " fill="#000000"/><text fill="#000000" font-family="sans-serif" font-size="14" lengthAdjust="spacing" textLength="41.6992" x="867.6274" y="704.2593">Ended</text><line style="stroke:#181818;stroke-width:0.5;" x1="785.77" x2="958.6841" y1="714.9683" y2="714.9683"/><line style="stroke:#181818;stroke-width:0.5;" x1="785.77" x2="958.6841" y1="722.9683" y2="722.9683"/><rect fill="#F24D5C" height="6" style="stroke:#C82930;stroke-width:1;" width="6" x="792.77" y="733.7124"/><text fill="#000000" font-family="sans-serif" font-size="14" lengthAdjust="spacing" textLength="103.8926" x="804.77" y="740.5034">SessionId (1..1)</text><rect fill="#F24D5C" height="6" style="stroke:#C82930;stroke-width:1;" width="6" x="792.77" y="750.2007"/><text fill="#000000" font-family="sans-serif" font-size="14" lengthAdjust="spacing" textLength="111.1865" x="804.77" y="756.9917">BeginTime (1..1)</text><rect fill="#F24D5C" height="6" style="stroke:#C82930;stroke-width:1;" width="6" x="792.77" y="766.689"/><text fill="#000000" font-family="sans-serif" font-size="14" lengthAdjust="spacing" textLength="98.957" x="804.77" y="773.48">EndTime (1..1)</text><rect fill="#F24D5C" height="6" style="stroke:#C82930;stroke-width:1;" width="6" x="792.77" y="783.1773"/><text fill="#000000" font-family="sans-serif" font-size="14" lengthAdjust="spacing" textLength="97.6787" x="804.77" y="789.9683">Payment (0..1)</text><rect fill="#F24D5C" height="6" style="stroke:#C82930;stroke-width:1;" width="6" x="792.77" y="799.6655"/><text fill="#000000" font-family="sans-serif" font-size="14" lengthAdjust="spacing" textLength="148.9141" x="804.77" y="806.4566">EndSessionType (1..1)</text></g><!--class Reservation--><g class="entity" data-entity="Reservation" data-source-line="37" data-uid="ent0013" id="entity_Reservation"><rect fill="#F1F1F1" height="113.9531" rx="2.5" ry="2.5" style="stroke:#181818;stroke-width:0.5;" width="191.6279" x="413.41" y="375.9083"/><ellipse cx="465.5409" cy="391.9083" fill="#ADD1B2" rx="11" ry="11" style="stroke:#181818;stroke-width:1;"/><path d="M468.514,397.5513 Q467.9329,397.8502 467.2938,397.9996 Q466.6546,398.149 465.9491,398.149 Q463.4422,398.149 462.1224,396.4971 Q460.8026,394.8453 460.8026,391.7242 Q460.8026,388.5948 462.1224,386.9429 Q463.4422,385.2911 465.9491,385.2911 Q466.6546,385.2911 467.3021,385.4405 Q467.9496,385.5899 468.514,385.8887 L468.514,388.6114 Q467.8831,388.0304 467.2896,387.7606 Q466.6961,387.4908 466.0653,387.4908 Q464.7205,387.4908 464.0357,388.5575 Q463.3509,389.6241 463.3509,391.7242 Q463.3509,393.816 464.0357,394.8826 Q464.7205,395.9493 466.0653,395.9493 Q466.6961,395.9493 467.2896,395.6795 Q467.8831,395.4097 468.514,394.8287 Z " fill="#000000"/><text fill="#000000" font-family="sans-serif" font-size="14" lengthAdjust="spacing" textLength="78.8662" x="486.0409" y="397.1993">Reservation</text><line style="stroke:#181818;stroke-width:0.5;" x1="414.41" x2="604.0379" y1="407.9083" y2="407.9083"/><line style="stroke:#181818;stroke-width:0.5;" x1="414.41" x2="604.0379" y1="415.9083" y2="415.9083"/><rect fill="#F24D5C" height="6" style="stroke:#C82930;stroke-width:1;" width="6" x="421.41" y="426.6524"/><text fill="#000000" font-family="sans-serif" font-size="14" lengthAdjust="spacing" textLength="79.0439" x="433.41" y="433.4434">Name (1..1)</text><rect fill="#F24D5C" height="6" style="stroke:#C82930;stroke-width:1;" width="6" x="421.41" y="443.1407"/><text fill="#000000" font-family="sans-serif" font-size="14" lengthAdjust="spacing" textLength="165.6279" x="433.41" y="449.9317">TelephoneNumber (1..1)</text><rect fill="#F24D5C" height="6" style="stroke:#C82930;stroke-width:1;" width="6" x="421.41" y="459.629"/><text fill="#000000" font-family="sans-serif" font-size="14" lengthAdjust="spacing" textLength="75.5713" x="433.41" y="466.42">EMail (1..1)</text><rect fill="#F24D5C" height="6" style="stroke:#C82930;stroke-width:1;" width="6" x="421.41" y="476.1173"/><text fill="#000000" font-family="sans-serif" font-size="14" lengthAdjust="spacing" textLength="155.3604" x="433.41" y="482.9083">NumberOfPeople (1..1)</text></g><!--class OrderedItem--><g class="entity" data-entity="OrderedItem" data-source-line="44" data-uid="ent0014" id="entity_OrderedItem"><rect fill="#F1F1F1" height="97.4648" rx="2.5" ry="2.5" style="stroke:#181818;stroke-width:0.5;" width="193.3643" x="833.54" y="201.9483"/><ellipse cx="883.1245" cy="217.9483" fill="#ADD1B2" rx="11" ry="11" style="stroke:#181818;stroke-width:1;"/><path d="M886.0976,223.5913 Q885.5166,223.8902 884.8774,224.0396 Q884.2382,224.189 883.5327,224.189 Q881.0258,224.189 879.706,222.5371 Q878.3862,220.8853 878.3862,217.7642 Q878.3862,214.6348 879.706,212.9829 Q881.0258,211.3311 883.5327,211.3311 Q884.2382,211.3311 884.8857,211.4805 Q885.5332,211.6299 886.0976,211.9287 L886.0976,214.6514 Q885.4668,214.0704 884.8733,213.8006 Q884.2797,213.5308 883.6489,213.5308 Q882.3042,213.5308 881.6193,214.5975 Q880.9345,215.6641 880.9345,217.7642 Q880.9345,219.856 881.6193,220.9226 Q882.3042,221.9893 883.6489,221.9893 Q884.2797,221.9893 884.8733,221.7195 Q885.4668,221.4497 886.0976,220.8687 Z " fill="#000000"/><text fill="#000000" font-family="sans-serif" font-size="14" lengthAdjust="spacing" textLength="85.6953" x="903.6245" y="223.2393">OrderedItem</text><line style="stroke:#181818;stroke-width:0.5;" x1="834.54" x2="1025.9043" y1="233.9483" y2="233.9483"/><line style="stroke:#181818;stroke-width:0.5;" x1="834.54" x2="1025.9043" y1="241.9483" y2="241.9483"/><rect fill="#F24D5C" height="6" style="stroke:#C82930;stroke-width:1;" width="6" x="841.54" y="252.6924"/><text fill="#000000" font-family="sans-serif" font-size="14" lengthAdjust="spacing" textLength="138.6396" x="853.54" y="259.4834">OrderedItemId (1..1)</text><rect fill="#F24D5C" height="6" style="stroke:#C82930;stroke-width:1;" width="6" x="841.54" y="269.1807"/><text fill="#000000" font-family="sans-serif" font-size="14" lengthAdjust="spacing" textLength="158.5732" x="853.54" y="275.9717">OrderedItemType (1..1)</text><rect fill="#F24D5C" height="6" style="stroke:#C82930;stroke-width:1;" width="6" x="841.54" y="285.669"/><text fill="#000000" font-family="sans-serif" font-size="14" lengthAdjust="spacing" textLength="167.3643" x="853.54" y="292.46">OrderedItemStatus (1..1)</text></g><!--class Round--><g class="entity" data-entity="Round" data-source-line="50" data-uid="ent0015" id="entity_Round"><rect fill="#F1F1F1" height="80.9766" rx="2.5" ry="2.5" style="stroke:#181818;stroke-width:0.5;" width="122.585" x="868.93" y="392.3883"/><ellipse cx="905.055" cy="408.3883" fill="#ADD1B2" rx="11" ry="11" style="stroke:#181818;stroke-width:1;"/><path d="M908.0281,414.0313 Q907.447,414.3302 906.8079,414.4796 Q906.1687,414.629 905.4632,414.629 Q902.9563,414.629 901.6365,412.9771 Q900.3167,411.3253 900.3167,408.2042 Q900.3167,405.0748 901.6365,403.4229 Q902.9563,401.7711 905.4632,401.7711 Q906.1687,401.7711 906.8162,401.9205 Q907.4636,402.0699 908.0281,402.3688 L908.0281,405.0914 Q907.3972,404.5104 906.8037,404.2406 Q906.2102,403.9708 905.5794,403.9708 Q904.2346,403.9708 903.5498,405.0375 Q902.865,406.1041 902.865,408.2042 Q902.865,410.296 903.5498,411.3626 Q904.2346,412.4293 905.5794,412.4293 Q906.2102,412.4293 906.8037,412.1595 Q907.3972,411.8897 908.0281,411.3087 Z " fill="#000000"/><text fill="#000000" font-family="sans-serif" font-size="14" lengthAdjust="spacing" textLength="43.6406" x="923.7494" y="413.6793">Round</text><line style="stroke:#181818;stroke-width:0.5;" x1="869.93" x2="990.515" y1="424.3883" y2="424.3883"/><line style="stroke:#181818;stroke-width:0.5;" x1="869.93" x2="990.515" y1="432.3883" y2="432.3883"/><rect fill="#F24D5C" height="6" style="stroke:#C82930;stroke-width:1;" width="6" x="876.93" y="443.1324"/><text fill="#000000" font-family="sans-serif" font-size="14" lengthAdjust="spacing" textLength="96.585" x="888.93" y="449.9234">RoundId (1..1)</text><rect fill="#F24D5C" height="6" style="stroke:#C82930;stroke-width:1;" width="6" x="876.93" y="459.6207"/><text fill="#000000" font-family="sans-serif" font-size="14" lengthAdjust="spacing" textLength="78.8799" x="888.93" y="466.4117">Order (0..n)</text></g><!--class Table--><g class="entity" data-entity="Table" data-source-line="55" data-uid="ent0016" id="entity_Table"><rect fill="#F1F1F1" height="146.9297" rx="2.5" ry="2.5" style="stroke:#181818;stroke-width:0.5;" width="193.8975" x="640.28" y="359.4183"/><ellipse cx="714.3576" cy="375.4183" fill="#ADD1B2" rx="11" ry="11" style="stroke:#181818;stroke-width:1;"/><path d="M717.3308,381.0613 Q716.7497,381.3602 716.1106,381.5096 Q715.4714,381.659 714.7658,381.659 Q712.259,381.659 710.9392,380.0071 Q709.6194,378.3553 709.6194,375.2342 Q709.6194,372.1048 710.9392,370.4529 Q712.259,368.8011 714.7658,368.8011 Q715.4714,368.8011 716.1189,368.9505 Q716.7663,369.0999 717.3308,369.3987 L717.3308,372.1214 Q716.6999,371.5404 716.1064,371.2706 Q715.5129,371.0008 714.8821,371.0008 Q713.5373,371.0008 712.8525,372.0675 Q712.1677,373.1341 712.1677,375.2342 Q712.1677,377.326 712.8525,378.3926 Q713.5373,379.4593 714.8821,379.4593 Q715.5129,379.4593 716.1064,379.1895 Q716.6999,378.9197 717.3308,378.3387 Z " fill="#000000"/><text fill="#000000" font-family="sans-serif" font-size="14" lengthAdjust="spacing" textLength="37.2422" x="734.8576" y="380.7093">Table</text><line style="stroke:#181818;stroke-width:0.5;" x1="641.28" x2="833.1775" y1="391.4183" y2="391.4183"/><line style="stroke:#181818;stroke-width:0.5;" x1="641.28" x2="833.1775" y1="399.4183" y2="399.4183"/><rect fill="#F24D5C" height="6" style="stroke:#C82930;stroke-width:1;" width="6" x="648.28" y="410.1624"/><text fill="#000000" font-family="sans-serif" font-size="14" lengthAdjust="spacing" textLength="90.1865" x="660.28" y="416.9534">TableId (1..1)</text><rect fill="#F24D5C" height="6" style="stroke:#C82930;stroke-width:1;" width="6" x="648.28" y="426.6507"/><text fill="#000000" font-family="sans-serif" font-size="14" lengthAdjust="spacing" textLength="125.6309" x="660.28" y="433.4417">OrderedItem (0..n)</text><rect fill="#F24D5C" height="6" style="stroke:#C82930;stroke-width:1;" width="6" x="648.28" y="443.139"/><text fill="#000000" font-family="sans-serif" font-size="14" lengthAdjust="spacing" textLength="83.5762" x="660.28" y="449.93">Round (0..n)</text><rect fill="#F24D5C" height="6" style="stroke:#C82930;stroke-width:1;" width="6" x="648.28" y="459.6273"/><text fill="#000000" font-family="sans-serif" font-size="14" lengthAdjust="spacing" textLength="153.9795" x="660.28" y="466.4183">NumberOfAdults (0..n)</text><rect fill="#F24D5C" height="6" style="stroke:#C82930;stroke-width:1;" width="6" x="648.28" y="476.1155"/><text fill="#000000" font-family="sans-serif" font-size="14" lengthAdjust="spacing" textLength="167.8975" x="660.28" y="482.9066">NumberOfChildren (0..n)</text><rect fill="#F24D5C" height="6" style="stroke:#C82930;stroke-width:1;" width="6" x="648.28" y="492.6038"/><text fill="#000000" font-family="sans-serif" font-size="14" lengthAdjust="spacing" textLength="159.9404" x="660.28" y="499.3948">NumberOfSeniors (0..n)</text></g><!--class Payment--><g class="entity" data-entity="Payment" data-source-line="64" data-uid="ent0017" id="entity_Payment"><rect fill="#F1F1F1" height="80.9766" rx="2.5" ry="2.5" style="stroke:#181818;stroke-width:0.5;" width="127.541" x="250.46" y="392.3883"/><ellipse cx="282.5429" cy="408.3883" fill="#ADD1B2" rx="11" ry="11" style="stroke:#181818;stroke-width:1;"/><path d="M285.516,414.0313 Q284.935,414.3302 284.2958,414.4796 Q283.6566,414.629 282.9511,414.629 Q280.4442,414.629 279.1244,412.9771 Q277.8046,411.3253 277.8046,408.2042 Q277.8046,405.0748 279.1244,403.4229 Q280.4442,401.7711 282.9511,401.7711 Q283.6566,401.7711 284.3041,401.9205 Q284.9516,402.0699 285.516,402.3688 L285.516,405.0914 Q284.8851,404.5104 284.2916,404.2406 Q283.6981,403.9708 283.0673,403.9708 Q281.7225,403.9708 281.0377,405.0375 Q280.3529,406.1041 280.3529,408.2042 Q280.3529,410.296 281.0377,411.3626 Q281.7225,412.4293 283.0673,412.4293 Q283.6981,412.4293 284.2916,412.1595 Q284.8851,411.8897 285.516,411.3087 Z " fill="#000000"/><text fill="#000000" font-family="sans-serif" font-size="14" lengthAdjust="spacing" textLength="57.5791" x="300.3391" y="413.6793">Payment</text><line style="stroke:#181818;stroke-width:0.5;" x1="251.46" x2="377.001" y1="424.3883" y2="424.3883"/><line style="stroke:#181818;stroke-width:0.5;" x1="251.46" x2="377.001" y1="432.3883" y2="432.3883"/><rect fill="#F24D5C" height="6" style="stroke:#C82930;stroke-width:1;" width="6" x="258.46" y="443.1324"/><text fill="#000000" font-family="sans-serif" font-size="14" lengthAdjust="spacing" textLength="101.541" x="270.46" y="449.9234">TotalDue (1..1)</text><rect fill="#F24D5C" height="6" style="stroke:#C82930;stroke-width:1;" width="6" x="258.46" y="459.6207"/><text fill="#000000" font-family="sans-serif" font-size="14" lengthAdjust="spacing" textLength="100.1533" x="270.46" y="466.4117">Discount (0..1)</text></g><!--class OrderedItemStatus--><g class="entity" data-entity="OrderedItemStatus" data-source-line="69" data-uid="ent0018" id="entity_OrderedItemStatus"><rect fill="#F1F1F1" height="80.9766" rx="2.5" ry="2.5" style="stroke:#181818;stroke-width:0.5;" width="159.2646" x="945.59" y="52.7283"/><ellipse cx="960.59" cy="68.7283" fill="#EB937F" rx="11" ry="11" style="stroke:#181818;stroke-width:1;"/><path d="M964.7043,74.7283 L956.9845,74.7283 L956.9845,62.3352 L964.7043,62.3352 L964.7043,64.4934 L959.4333,64.4934 L959.4333,67.1663 L964.2062,67.1663 L964.2062,69.3245 L959.4333,69.3245 L959.4333,72.5701 L964.7043,72.5701 Z " fill="#000000"/><text fill="#000000" font-family="sans-serif" font-size="14" lengthAdjust="spacing" textLength="127.2646" x="974.59" y="74.0193">OrderedItemStatus</text><line style="stroke:#181818;stroke-width:0.5;" x1="946.59" x2="1103.8546" y1="84.7283" y2="84.7283"/><text fill="#000000" font-family="sans-serif" font-size="14" lengthAdjust="spacing" textLength="49.7861" x="951.59" y="102.2634">DRAFT,</text><text fill="#000000" font-family="sans-serif" font-size="14" lengthAdjust="spacing" textLength="77.1641" x="951.59" y="118.7517">SUBMITTED</text><line style="stroke:#181818;stroke-width:0.5;" x1="946.59" x2="1103.8546" y1="125.7048" y2="125.7048"/></g><!--class OrderedItemType--><g class="entity" data-entity="OrderedItemType" data-source-line="74" data-uid="ent0019" id="entity_OrderedItemType"><rect fill="#F1F1F1" height="97.4648" rx="2.5" ry="2.5" style="stroke:#181818;stroke-width:0.5;" width="150.4736" x="759.99" y="44.4883"/><ellipse cx="774.99" cy="60.4883" fill="#EB937F" rx="11" ry="11" style="stroke:#181818;stroke-width:1;"/><path d="M779.1043,66.4883 L771.3845,66.4883 L771.3845,54.0952 L779.1043,54.0952 L779.1043,56.2534 L773.8333,56.2534 L773.8333,58.9263 L778.6062,58.9263 L778.6062,61.0845 L773.8333,61.0845 L773.8333,64.3301 L779.1043,64.3301 Z " fill="#000000"/><text fill="#000000" font-family="sans-serif" font-size="14" lengthAdjust="spacing" textLength="118.4736" x="788.99" y="65.7793">OrderedItemType</text><line style="stroke:#181818;stroke-width:0.5;" x1="760.99" x2="909.4636" y1="76.4883" y2="76.4883"/><text fill="#000000" font-family="sans-serif" font-size="14" lengthAdjust="spacing" textLength="47.2842" x="765.99" y="94.0234">DRINK,</text><text fill="#000000" font-family="sans-serif" font-size="14" lengthAdjust="spacing" textLength="44.1738" x="765.99" y="110.5117">FOOD,</text><text fill="#000000" font-family="sans-serif" font-size="14" lengthAdjust="spacing" textLength="58.4473" x="765.99" y="127">DESSERT</text><line style="stroke:#181818;stroke-width:0.5;" x1="760.99" x2="909.4636" y1="133.9531" y2="133.9531"/></g><!--class EndSessionType--><g class="entity" data-entity="EndSessionType" data-source-line="80" data-uid="ent0020" id="entity_EndSessionType"><rect fill="#F1F1F1" height="97.4648" rx="2.5" ry="2.5" style="stroke:#181818;stroke-width:0.5;" width="208.4512" x="7" y="384.1483"/><ellipse cx="52.5684" cy="400.1483" fill="#EB937F" rx="11" ry="11" style="stroke:#181818;stroke-width:1;"/><path d="M56.6826,406.1483 L48.9629,406.1483 L48.9629,393.7552 L56.6826,393.7552 L56.6826,395.9134 L51.4116,395.9134 L51.4116,398.5863 L56.1846,398.5863 L56.1846,400.7445 L51.4116,400.7445 L51.4116,403.9901 L56.6826,403.9901 Z " fill="#000000"/><text fill="#000000" font-family="sans-serif" font-size="14" lengthAdjust="spacing" textLength="108.8145" x="73.0684" y="405.4393">EndSessionType</text><line style="stroke:#181818;stroke-width:0.5;" x1="8" x2="214.4512" y1="416.1483" y2="416.1483"/><text fill="#000000" font-family="sans-serif" font-size="14" lengthAdjust="spacing" textLength="196.4512" x="13" y="433.6834">COMPLETED_WITH_PAYMENT</text><text fill="#000000" font-family="sans-serif" font-size="14" lengthAdjust="spacing" textLength="113.5654" x="13" y="450.1717">CUSTOMER_LEFT</text><text fill="#000000" font-family="sans-serif" font-size="14" lengthAdjust="spacing" textLength="163.4951" x="13" y="466.66">CUSTOMER_SENT_AWAY</text><line style="stroke:#181818;stroke-width:0.5;" x1="8" x2="214.4512" y1="473.6131" y2="473.6131"/></g><!--class Order--><g class="entity" data-entity="Order" data-source-line="91" data-uid="ent0031" id="entity_Order"><rect fill="#F1F1F1" height="48" rx="2.5" ry="2.5" style="stroke:#181818;stroke-width:0.5;" width="70.9443" x="701.75" y="226.6883"/><ellipse cx="716.75" cy="242.6883" fill="#ADD1B2" rx="11" ry="11" style="stroke:#181818;stroke-width:1;"/><path d="M719.7231,248.3313 Q719.1421,248.6302 718.5029,248.7796 Q717.8638,248.929 717.1582,248.929 Q714.6514,248.929 713.3315,247.2771 Q712.0117,245.6253 712.0117,242.5042 Q712.0117,239.3748 713.3315,237.7229 Q714.6514,236.0711 717.1582,236.0711 Q717.8638,236.0711 718.5112,236.2205 Q719.1587,236.3699 719.7231,236.6687 L719.7231,239.3914 Q719.0923,238.8104 718.4988,238.5406 Q717.9053,238.2708 717.2744,238.2708 Q715.9297,238.2708 715.2449,239.3375 Q714.5601,240.4041 714.5601,242.5042 Q714.5601,244.596 715.2449,245.6626 Q715.9297,246.7293 717.2744,246.7293 Q717.9053,246.7293 718.4988,246.4595 Q719.0923,246.1897 719.7231,245.6087 Z " fill="#000000"/><text fill="#000000" font-family="sans-serif" font-size="14" lengthAdjust="spacing" textLength="38.9443" x="730.75" y="247.9793">Order</text><line style="stroke:#181818;stroke-width:0.5;" x1="702.75" x2="771.6943" y1="258.6883" y2="258.6883"/><line style="stroke:#181818;stroke-width:0.5;" x1="702.75" x2="771.6943" y1="266.6883" y2="266.6883"/></g><!--reverse link Session to None--><g class="link" data-entity-1="Session" data-entity-2="None" data-uid="lnk4" id="link_Session_None"><path d="M449.8847,604.7438 C394.5247,614.3438 313.22,634.2083 243.23,682.9683 C227.92,693.6283 214.93,710.1983 205.88,723.8283" fill="none" id="Session-backto-None" style="stroke:#181818;stroke-width:1;stroke-dasharray:7,7;"/><polygon fill="none" points="467.62,601.6683,448.8595,598.832,450.9098,610.6555,467.62,601.6683" style="stroke:#181818;stroke-width:1;"/></g><!--reverse link Session to NewSession--><g class="link" data-entity-1="Session" data-entity-2="NewSession" data-source-line="10" data-uid="lnk6" id="link_Session_NewSession"><path d="M463.2989,635.1922 C441.3689,654.0722 425.24,667.9683 398.48,691.0083" fill="none" id="Session-backto-NewSession" style="stroke:#181818;stroke-width:1;stroke-dasharray:7,7;"/><polygon fill="none" points="476.94,623.4483,459.3842,630.6452,467.2135,639.7392,476.94,623.4483" style="stroke:#181818;stroke-width:1;"/></g><!--reverse link Session to Ordering--><g class="link" data-entity-1="Session" data-entity-2="Ordering" data-source-line="17" data-uid="lnk8" id="link_Session_Ordering"><path d="M509.23,641.4483 C509.23,662.5583 509.23,674.0883 509.23,699.0183" fill="none" id="Session-backto-Ordering" style="stroke:#181818;stroke-width:1;stroke-dasharray:7,7;"/><polygon fill="none" points="509.23,623.4483,503.23,641.4483,515.23,641.4483,509.23,623.4483" style="stroke:#181818;stroke-width:1;"/></g><!--reverse link Session to FinishedEating--><g class="link" data-entity-1="Session" data-entity-2="FinishedEating" data-source-line="23" data-uid="lnk10" id="link_Session_FinishedEating"><path d="M554.2788,635.3441 C575.7188,654.2241 591.3,667.9683 617.46,691.0083" fill="none" id="Session-backto-FinishedEating" style="stroke:#181818;stroke-width:1;stroke-dasharray:7,7;"/><polygon fill="none" points="540.77,623.4483,550.3136,639.8471,558.2441,630.8412,540.77,623.4483" style="stroke:#181818;stroke-width:1;"/></g><!--reverse link Session to Ended--><g class="link" data-entity-1="Session" data-entity-2="Ended" data-source-line="30" data-uid="lnk12" id="link_Session_Ended"><path d="M568.3342,611.4926 C620.2842,625.9126 693.77,648.5983 767.23,682.9683 C772.94,685.6383 778.72,688.5483 784.5,691.5983" fill="none" id="Session-backto-Ended" style="stroke:#181818;stroke-width:1;stroke-dasharray:7,7;"/><polygon fill="none" points="550.99,606.6783,566.7295,617.274,569.939,605.7112,550.99,606.6783" style="stroke:#181818;stroke-width:1;"/></g><!--reverse link Table to Session--><g class="link" data-entity-1="Table" data-entity-2="Session" data-source-line="86" data-uid="lnk22" id="link_Table_Session"><path codeLine="86" d="M634.9561,505.5512 C602.8861,528.0212 573.93,548.3183 548.71,565.9883" fill="none" id="Table-backto-Session" style="stroke:#181818;stroke-width:1;"/><polygon fill="#181818" points="639.87,502.1083,630.2039,503.9968,635.7751,504.9774,634.7945,510.5486,639.87,502.1083" style="stroke:#181818;stroke-width:1;"/></g><!--reverse link Reservation to Session--><g class="link" data-entity-1="Reservation" data-entity-2="Session" data-source-line="87" data-uid="lnk24" id="link_Reservation_Session"><path codeLine="87" d="M509.23,496.2083 C509.23,521.9083 509.23,545.1783 509.23,566.0083" fill="none" id="Reservation-backto-Session" style="stroke:#181818;stroke-width:1;"/><polygon fill="#181818" points="509.23,490.2083,505.23,499.2083,509.23,495.2083,513.23,499.2083,509.23,490.2083" style="stroke:#181818;stroke-width:1;"/></g><!--reverse link Round to Session--><g class="link" data-entity-1="Round" data-entity-2="Session" data-source-line="88" data-uid="lnk26" id="link_Round_Session"><path codeLine="88" d="M889.8898,477.9606 C877.3098,489.9106 866.77,497.9283 851.23,506.3483 C751.8,560.1683 618.05,581.7583 551.09,589.6183" fill="none" id="Round-backto-Session" style="stroke:#181818;stroke-width:1;"/><polygon fill="#181818" points="894.24,473.8283,884.9599,477.1266,890.6149,477.2719,890.4696,482.9269,894.24,473.8283" style="stroke:#181818;stroke-width:1;"/></g><!--reverse link Payment to Session--><g class="link" data-entity-1="Payment" data-entity-2="Session" data-source-line="89" data-uid="lnk28" id="link_Payment_Session"><path codeLine="89" d="M362.5174,477.5098 C374.7474,488.3098 383.63,495.9383 396.23,506.3483 C421.07,526.8783 449.82,549.0783 472.1,565.9483" fill="none" id="Payment-backto-Session" style="stroke:#181818;stroke-width:1;"/><polygon fill="#181818" points="358.02,473.5383,362.1184,482.4939,361.7678,476.8479,367.4138,476.4973,358.02,473.5383" style="stroke:#181818;stroke-width:1;"/></g><!--reverse link EndSessionType to Session--><g class="link" data-entity-1="EndSessionType" data-entity-2="Session" data-source-line="90" data-uid="lnk30" id="link_EndSessionType_Session"><path codeLine="90" d="M191.4546,485.0636 C206.6746,493.7936 217.6,499.3483 233.23,506.3483 C313.26,542.1983 412.42,569.7383 467.45,583.6483" fill="none" id="EndSessionType-backto-Session" style="stroke:#181818;stroke-width:1;"/><polygon fill="#181818" points="186.25,482.0783,192.0667,490.026,190.5872,484.566,196.0471,483.0865,186.25,482.0783" style="stroke:#181818;stroke-width:1;"/></g><!--reverse link Order to Table--><g class="link" data-entity-1="Order" data-entity-2="Table" data-source-line="91" data-uid="lnk33" id="link_Order_Table"><path codeLine="91" d="M737.23,280.8683 C737.23,302.1683 737.23,328.8783 737.23,358.9483" fill="none" id="Order-backto-Table" style="stroke:#181818;stroke-width:1;"/><polygon fill="#181818" points="737.23,274.8683,733.23,283.8683,737.23,279.8683,741.23,283.8683,737.23,274.8683" style="stroke:#181818;stroke-width:1;"/></g><!--reverse link OrderedItemStatus to OrderedItem--><g class="link" data-entity-1="OrderedItemStatus" data-entity-2="OrderedItem" data-source-line="92" data-uid="lnk35" id="link_OrderedItemStatus_OrderedItem"><path codeLine="92" d="M997.8811,138.9678 C985.2911,159.5678 972.93,179.7983 959.66,201.5183" fill="none" id="OrderedItemStatus-backto-OrderedItem" style="stroke:#181818;stroke-width:1;"/><polygon fill="#181818" points="1001.01,133.8483,992.9036,139.4417,998.4026,138.1146,999.7297,143.6136,1001.01,133.8483" style="stroke:#181818;stroke-width:1;"/></g><!--reverse link OrderedItemType to OrderedItem--><g class="link" data-entity-1="OrderedItemType" data-entity-2="OrderedItem" data-source-line="93" data-uid="lnk37" id="link_OrderedItemType_OrderedItem"><path codeLine="93" d="M867.6283,147.2482 C879.1883,166.1682 889.32,182.7383 900.88,201.6583" fill="none" id="OrderedItemType-backto-OrderedItem" style="stroke:#181818;stroke-width:1;"/><polygon fill="#181818" points="864.5,142.1283,865.7791,151.8937,867.1069,146.3949,872.6057,147.7227,864.5,142.1283" style="stroke:#181818;stroke-width:1;"/></g><!--reverse link OrderedItem to Round--><g class="link" data-entity-1="OrderedItem" data-entity-2="Round" data-source-line="94" data-uid="lnk39" id="link_OrderedItem_Round"><path codeLine="94" d="M930.23,305.4983 C930.23,334.3783 930.23,364.7583 930.23,392.0683" fill="none" id="OrderedItem-backto-Round" style="stroke:#181818;stroke-width:1;"/><polygon fill="#181818" points="930.23,299.4983,926.23,308.4983,930.23,304.4983,934.23,308.4983,930.23,299.4983" style="stroke:#181818;stroke-width:1;"/></g><!--SRC=[jLF1Qjmm4BthAtnCe1kwzx3Wn5vg6jlBIY7aj2YhILOWoyQIMqBelrUsreeicwMKrYVfpPjvJpDZpRM0AAahocMKrmm4GbngQ5_f4I8CIl5QHhUt6AW0jjaWT1HKgQYe9KIyQWHK8BLop0_qor7WvuWk4YFphSPxngAhzStD-leCxq51-uFgddhrrGlSmHkNX5SmvHFwOjxHC-NrfuMoPT1o-VON1YxhhASwMowvEW5BZU5_gPPAzgSM31NOVrRUqVU-zdGWXdakJTuRb-1y-OCShHHqzYOGq9pCJXLTzG9ju2MdN4mXIojVTr0tOYuwp1rOfg5oeXuMzi0B-M-O1R6ckbFp9zQTP4vdk2qgpDRJJlB3d-i5QsEw9pE5ngR4h1Dc0HPZzoSkM0joEOf1yhfLCwFZu9tLMbEHT46d4gwEnfNR3vCEigiMEcZh9FjuIxuCH_nubsU4fCbIqZ2JCIKhljkKRLaczfIa6ATxubA3ZRIPzsM-UqYDmk4f8zyEk_WvJmjYGu-Ob7cwFpoasm31XdE8d-BdllZuHwswPhMnumemRzd3I3-k03jtDK2dxf7T4HiQUeBybV1mly6NEKDTkp-p64A_0G00]--></g></svg>